<svg xmlns="http://www.w3.org/2000/svg" width="1080" height="1080" viewBox="0 0 1080 1080" role="img" aria-labelledby="t d"><title id="t">Precast Concrete Academy manual library</title><desc id="d">Five practical manuals for precast producers.</desc><rect width="1080" height="1080" fill="#F7F5F0"/><rect x="48" y="48" width="984" height="984" rx="28" fill="#0B2E1F"/><text x="92" y="115" fill="#C4A35A" font-family="Arial" font-size="23" font-weight="700" letter-spacing="5">PRECAST CONCRETE ACADEMY</text><text x="92" y="220" fill="#FFFFFF" font-family="Georgia" font-size="82" font-weight="700">Control the factory.</text><text x="92" y="300" fill="#FFFFFF" font-family="Georgia" font-size="82" font-style="italic">Protect the margin.</text><text x="92" y="360" fill="#BFCBC5" font-family="Arial" font-size="29">Five field-ready manuals for stronger production decisions.</text><g font-family="Arial" font-weight="700" font-size="25"><rect x="92" y="420" width="896" height="82" rx="12" fill="#153E2C" stroke="#41614F"/><text x="122" y="471" fill="#C4A35A">01</text><text x="185" y="471" fill="#FFF">Precast Concrete Engineering Handbook</text><rect x="92" y="518" width="896" height="82" rx="12" fill="#153E2C" stroke="#41614F"/><text x="122" y="569" fill="#C4A35A">02</text><text x="185" y="569" fill="#FFF">Concrete Block &amp; Hollow-Pot Production</text><rect x="92" y="616" width="896" height="82" rx="12" fill="#153E2C" stroke="#41614F"/><text x="122" y="667" fill="#C4A35A">03</text><text x="185" y="667" fill="#FFF">Mix Design &amp; Quality Control</text><rect x="92" y="714" width="896" height="82" rx="12" fill="#153E2C" stroke="#41614F"/><text x="122" y="765" fill="#C4A35A">04</text><text x="185" y="765" fill="#FFF">Factory Setup &amp; Operations</text><rect x="92" y="812" width="896" height="82" rx="12" fill="#153E2C" stroke="#41614F"/><text x="122" y="863" fill="#C4A35A">05</text><text x="185" y="863" fill="#FFF">Costing, Pricing &amp; Sales</text></g><rect x="92" y="930" width="435" height="70" rx="12" fill="#C4A35A"/><text x="310" y="975" text-anchor="middle" fill="#0B2E1F" font-family="Arial" font-size="24" font-weight="700">BROWSE THE LIBRARY →</text><text x="565" y="973" fill="#FFFFFF" font-family="Arial" font-size="23">ecowayprecast.github.io</text></svg>
